<?xml version="1.0" encoding="UTF-8"?>
<svg enable-background="new 0 0 58 58" version="1.1" viewBox="0 0 58 58" xml:space="preserve" xmlns="http://www.w3.org/2000/svg" xmlns:cc="http://creativecommons.org/ns#" xmlns:dc="http://purl.org/dc/elements/1.1/" xmlns:rdf="http://www.w3.org/1999/02/22-rdf-syntax-ns#"><metadata><rdf:RDF><cc:Work rdf:about=""><dc:format>image/svg+xml</dc:format><dc:type rdf:resource="http://purl.org/dc/dcmitype/StillImage"/><dc:title/></cc:Work></rdf:RDF></metadata>
<path d="M46.324,58H1.565c-1.03,0-1.779-0.978-1.51-1.973l10.166-27.871C10.405,27.474,11.024,27,11.731,27  H56.49c1.03,0,1.51,0.984,1.51,1.973L47.834,56.844C47.65,57.526,47.031,58,46.324,58z" fill="#EFCE4A"/>
<path d="M50.268,18H48v9h4v-7.268C52,18.775,51.224,18,50.268,18z" fill="#EBBA16"/>
<path d="M4,11H1.732C0.776,11,0,11.775,0,12.732V55.46c0.069,0.002,0.138,0.006,0.205,0.01L4,45.122V11z" fill="#EBBA16"/>
<path d="m10.221 28.156c0.184-0.682 0.803-1.156 1.51-1.156h36.269v-27h-38v28.761l0.221-0.605z" fill="#F4EFDC"/>
<g fill="#CEC9AE">
	<path d="m17 16h24c0.552 0 1-0.447 1-1s-0.448-1-1-1h-24c-0.552 0-1 0.447-1 1s0.448 1 1 1z"/>
	<path d="m17 9h10c0.552 0 1-0.447 1-1s-0.448-1-1-1h-10c-0.552 0-1 0.447-1 1s0.448 1 1 1z"/>
	<path d="m41 21h-24c-0.552 0-1 0.447-1 1s0.448 1 1 1h24c0.552 0 1-0.447 1-1s-0.448-1-1-1z"/>
</g>
<polygon points="10 28.761 10 2 7 2 7 36.986" fill="#CEC9AE"/>
<polygon points="7 36.986 7 4 4 4 4 45.211" fill="#D1BF86"/>















</svg>
